<svg xmlns="http://www.w3.org/2000/svg" viewBox="0 0 79 79"><path fill="#E3C68F" stroke="#E3C68F" d="M77.741 39.87l-.85.481c-.148.111-4.106 2.404-4.106 8.507 0 6.434-.85 14.978-8.247 15.68-.702 7.36-9.245 8.248-15.68 8.248-6.103 0-8.47 4.068-8.507 4.105l-.48.85-.481-.85c-.111-.148-2.404-4.106-8.506-4.106-6.435 0-14.978-.85-15.681-8.247-7.36-.702-8.247-9.245-8.247-15.68 0-6.103-4.068-8.47-4.105-8.507L2 39.871l.85-.481c.186-.111 4.106-2.404 4.106-8.506 0-6.435.85-14.978 8.247-15.681.703-7.36 9.246-8.247 15.68-8.247 6.103 0 8.396-3.92 8.507-4.105l.48-.85.481.85c.111.148 2.404 4.105 8.506 4.105 6.435 0 14.979.85 15.681 8.247 7.36.703 8.247 9.246 8.247 15.68 0 6.103 3.92 8.396 4.106 8.507l.85.48zm-37.87 35.763c1.035-1.294 3.772-3.957 8.986-3.957 6.14 0 14.313-.814 14.609-7.693l.037-.517.517-.037c6.88-.296 7.693-8.47 7.693-14.608 0-5.215 2.663-7.952 3.957-8.987-1.294-1.036-3.957-3.773-3.957-8.987 0-6.14-.814-14.313-7.693-14.609l-.517-.036-.037-.518c-.296-6.879-8.47-7.693-14.609-7.693-5.214 0-7.95-2.662-8.986-3.957-1.036 1.295-3.773 3.957-8.987 3.957-6.14 0-14.313.814-14.609 7.693l-.037.518-.517.036c-6.88.296-7.693 8.47-7.693 14.609 0 5.214-2.663 7.951-3.957 8.987 1.294 1.035 3.957 3.772 3.957 8.986 0 6.14.814 14.313 7.693 14.609l.517.037.037.517c.296 6.88 8.47 7.693 14.609 7.693 5.214 0 7.951 2.663 8.987 3.957z"/><g filter="url(#filter0_i)"><path fill="#029BAE" d="M40.124 9.46s2.045 3.643 7.511 3.643c5.333 0 12.4.711 12.666 6.845 6.133.266 6.844 7.332 6.844 12.666 0 5.466 3.644 7.51 3.644 7.51s-3.644 2.045-3.644 7.511c0 5.333-.71 12.4-6.844 12.666-.267 6.133-7.333 6.844-12.666 6.844-5.466 0-7.51 3.645-7.51 3.645s-2.045-3.645-7.511-3.645c-5.334 0-12.4-.71-12.667-6.844-6.133-.267-6.844-7.333-6.844-12.666 0-5.466-3.644-7.51-3.644-7.51s3.644-2.045 3.644-7.511c0-5.333.711-12.4 6.844-12.666.267-6.134 7.333-6.845 12.667-6.845 5.466.045 7.51-3.644 7.51-3.644z"/></g><defs><filter id="filter0_i" width="61.331" height="65.331" x="9.459" y="9.459" color-interpolation-filters="sRGB" filterUnits="userSpaceOnUse"><feFlood flood-opacity="0" result="BackgroundImageFix"/><feBlend in="SourceGraphic" in2="BackgroundImageFix" result="shape"/><feColorMatrix in="SourceAlpha" result="hardAlpha" values="0 0 0 0 0 0 0 0 0 0 0 0 0 0 0 0 0 0 127 0"/><feOffset dy="4"/><feGaussianBlur stdDeviation="2"/><feComposite in2="hardAlpha" k2="-1" k3="1" operator="arithmetic"/><feColorMatrix values="0 0 0 0 0 0 0 0 0 0 0 0 0 0 0 0 0 0 0.25 0"/><feBlend in2="shape" result="effect1_innerShadow"/></filter></defs></svg>