<svg xmlns="http://www.w3.org/2000/svg" viewBox="0 0 28 32"><path fill="#66E0EF" d="M1.87.108C1.091.385.545.877.2 1.615l-.2.423V30.115l.2.424c.277.6.615.953 1.162 1.23L1.83 32h25.977v-2.846H26.347v1.384H2.061l-.208-.161c-.623-.492-.554-1.377.13-1.692.316-.139.716-.146 13.078-.146h12.746V0H14.985C4.63.008 2.1.023 1.869.108zm24.476 14.161v12.808H14.308c-11.854 0-12.039 0-12.423.154a5.258 5.258 0 01-.423.154c-.085 0-.039-24.916.046-25.131.107-.285.361-.562.646-.685.192-.084 2.4-.1 12.215-.107h11.977v12.807z"/><path fill="#E3C68F" d="M3.423 14.27v10.807H24.346V3.462H3.423v10.807zm8.87-8.178c-.693.708-1.178 1.262-1.208 1.385-.077.338.077.6.769 1.3l.654.661-.254.193a2.34 2.34 0 00-.446.469c-.154.223-.239.277-.546.308-.824.1-1.685.723-1.924 1.392a.525.525 0 01-.338.346c-.385.139-.946.67-1.17 1.115-.3.577-.3 1.377 0 1.985.24.477.593.839 1.085 1.077.208.1.362.246.447.43.338.724.946 1.185 1.761 1.347.454.085.523.13.93.561l.44.462-.647.646c-1.107 1.1-1.092 1.146.485 2.716l1.146 1.13H4.885V4.923H13.454l-1.162 1.17zm10.592 8.177v9.346h-8.593l1.1-1.092c1.146-1.13 1.385-1.47 1.3-1.815-.023-.108-.354-.516-.73-.9l-.677-.693.438-.469c.415-.438.477-.477.93-.554.793-.146 1.409-.607 1.755-1.338a.902.902 0 01.446-.43c.492-.24.846-.6 1.085-1.078.3-.608.3-1.408 0-1.985-.224-.446-.785-.976-1.17-1.115a.53.53 0 01-.338-.338c-.239-.662-1.116-1.3-1.916-1.4-.223-.023-.4-.07-.4-.1 0-.031-.184-.246-.415-.485l-.415-.415.646-.646c.7-.7.854-.985.723-1.347-.046-.123-.592-.73-1.216-1.361l-1.13-1.13h8.577v9.345zm-8.477-7.092l.477.485-.5.492-.5.492-.5-.492-.5-.492.477-.485c.261-.27.5-.485.523-.485.023 0 .261.216.523.485zm-.023 3.43c.369.17.607.416.769.793.17.415.415.554.892.5.639-.077 1.085.192 1.23.73.1.385.293.57.678.678.608.161.923.823.646 1.361-.115.231-.254.346-.638.531-.462.223-.508.27-.7.708-.262.584-.508.73-1.185.715-.523-.008-.83.146-.93.477-.078.277-.409.662-.662.792-.308.162-.893.162-1.2 0-.254-.13-.585-.515-.662-.792-.1-.33-.408-.485-.93-.477-.678.015-.924-.13-1.185-.715-.193-.439-.239-.485-.7-.708-.385-.185-.523-.3-.639-.53-.277-.54.039-1.2.646-1.362.385-.108.577-.293.677-.677.146-.539.593-.808 1.231-.731.477.054.723-.085.892-.5.07-.154.2-.37.293-.47.207-.222.715-.469.977-.469.107 0 .33.07.5.147zm.038 9.74l.5.5-.523.522-.515.516-.516-.516-.523-.523.5-.5c.27-.277.516-.5.539-.5.023 0 .269.223.538.5z"/><path fill="#66E0EF" d="M7.83 7.108c-.176.154-.215.246-.215.546 0 .3.039.392.216.546.308.262.692.246.984-.038.662-.662-.276-1.662-.984-1.054zM6.577 8.408c-.654.33-.392 1.361.346 1.361.208 0 .339-.061.508-.223.592-.6-.092-1.523-.854-1.138zM6.392 19.008c-.623.738.393 1.638 1.077.954.285-.285.223-.831-.115-1.093-.07-.054-.27-.1-.446-.1-.262 0-.354.039-.516.239zM7.861 20.308c-.392.315-.33.969.123 1.2.493.261 1.054-.093 1.054-.662 0-.592-.7-.915-1.177-.538zM18.954 7.146c-.662.662.277 1.662.985 1.054.176-.154.215-.246.215-.546 0-.3-.039-.392-.215-.546-.308-.262-.693-.246-.985.038zM20.346 8.523c-.315.323-.323.708-.007 1.023.315.316.7.308 1.023-.008.208-.207.23-.276.192-.553-.054-.4-.254-.6-.654-.654-.277-.039-.346-.016-.554.192zM20.415 18.87c-.338.26-.4.807-.115 1.091.37.37.938.308 1.162-.123.169-.315.138-.569-.085-.83-.162-.2-.254-.239-.515-.239-.177 0-.377.046-.447.1zM18.93 20.354c-.384.392-.184 1.108.347 1.223.715.161 1.2-.685.692-1.2-.307-.3-.746-.316-1.038-.023z"/></svg>